<?xml version="1.0"?>
<svg xmlns="http://www.w3.org/2000/svg" viewBox="0 0 512 512" width="512" height="512"><g id="Outline"><rect x="248" y="280" width="16" height="16"/><path d="M19,126.247l15.006,12.005A58.31,58.31,0,0,1,56,184.008V200a8,8,0,0,0,3.884,6.86l7.667,4.6A58.892,58.892,0,0,1,96,261.706V272a8,8,0,0,0,5.47,7.589l2.464.822A58.522,58.522,0,0,1,144,336a8,8,0,0,0,8,8,112.7,112.7,0,0,1,66.8,22.11l31.547,31.547a8,8,0,0,0,11.314,0L293.2,366.11A112.7,112.7,0,0,1,360,344a8,8,0,0,0,8-8,58.522,58.522,0,0,1,40.067-55.589l2.463-.822A8,8,0,0,0,416,272V261.706a58.892,58.892,0,0,1,28.449-50.246l7.667-4.6A8,8,0,0,0,456,200V184.008a58.31,58.31,0,0,1,21.992-45.756L493,126.247A8,8,0,0,0,488,112H392a8,8,0,0,0-5.657,2.343l-72,72A8,8,0,0,0,312,192v64a8.009,8.009,0,0,1-8,8h-8V224a8,8,0,0,0-13.657-5.657L260.686,240h-9.372l-21.657-21.657A8,8,0,0,0,216,224v40h-8a8.009,8.009,0,0,1-8-8V192a8,8,0,0,0-2.343-5.657l-72-72A8,8,0,0,0,120,112H24a8,8,0,0,0-5,14.247ZM296,280h8a24.027,24.027,0,0,0,24-24V195.313L395.313,128h70.009A74.195,74.195,0,0,0,440,184.008V192H352v16h70.861a75.066,75.066,0,0,0-22.831,51.881l-44.879-19.234-6.3,14.706,39.173,16.789A74.49,74.49,0,0,0,355.586,313.1L342.86,291.884l-13.72,8.232,17.185,28.642A129.259,129.259,0,0,0,296,345.167Zm-64-8V243.314l10.343,10.343A8,8,0,0,0,248,256h16a8,8,0,0,0,5.657-2.343L280,243.314V356.686l-24,24-24-24ZM116.687,128,184,195.313V256a24.027,24.027,0,0,0,24,24h8v65.167a129.259,129.259,0,0,0-50.325-16.409l17.185-28.642-13.72-8.232L156.414,313.1a74.49,74.49,0,0,0-32.436-40.953l39.173-16.789-6.3-14.706L111.97,259.881A75.066,75.066,0,0,0,89.139,208H160V192H72v-7.992A74.195,74.195,0,0,0,46.678,128Z"/></g></svg>
