<?xml version="1.0"?>
<svg xmlns="http://www.w3.org/2000/svg" viewBox="0 0 512 512" width="512" height="512"><g id="Outline"><path d="M491.578,200.845l-30.1-15.051-5.946-8.919A37.808,37.808,0,0,0,432,160.849V136a8,8,0,0,0-8-8,46.575,46.575,0,0,0-41.888,25.889l-4.687,9.372L348.686,192H112a88.1,88.1,0,0,0-88,88V398.111l-7.155,14.311A8,8,0,0,0,24,424a87.463,87.463,0,0,0,62.229-25.775A87.46,87.46,0,0,0,112,336V264a16.019,16.019,0,0,1,16-16h8.518a64.2,64.2,0,0,0-.518,8,76.154,76.154,0,0,0,8,33.888l6.633,13.267L129.6,331.2A8,8,0,0,0,128,336v80a8,8,0,0,0,8,8h32a8,8,0,0,0,8-8V364.282l3.249-2.167,21.26,56.694A8,8,0,0,0,208,424h32a8,8,0,0,0,7.353-11.151L225.83,362.627l1.37-1.027A72.4,72.4,0,0,0,255.543,312h41.68l6.886,41.315a8.036,8.036,0,0,0,.4,1.494l24,64A8,8,0,0,0,336,424h64a8,8,0,0,0,7.491-10.809L384,350.549v-43.8L435.913,240H480a8,8,0,0,0,7.589-5.47l8-24A8,8,0,0,0,491.578,200.845ZM74.915,386.911A71.55,71.55,0,0,1,37.58,406.729l1.575-3.151A7.994,7.994,0,0,0,40,400V355.845l12-9.6,15,12a8,8,0,0,0,10,0l15-12,2.893,2.314A71.518,71.518,0,0,1,74.915,386.911ZM140.687,232H128a32.036,32.036,0,0,0-32,32v65.087a7.993,7.993,0,0,0-9,.666l-15,12-15-12a8,8,0,0,0-10,0l-7,5.6V280a72.081,72.081,0,0,1,72-72h45.736A64.248,64.248,0,0,0,140.687,232ZM217.6,348.8l-6.4,4.8a8,8,0,0,0-2.553,9.551L227.868,408H213.544L192.92,353l7.548-5.033A52.722,52.722,0,0,0,223.4,312h16.021A56.307,56.307,0,0,1,217.6,348.8ZM388.456,408H373.544L352,350.549V312h16v40a8,8,0,0,0,.509,2.809Zm85.778-184H432a8,8,0,0,0-6.315,3.088L372.087,296H344a8,8,0,0,0-8,8v48c0,.258.015.515.039.771.684,8.112,11.216,34.576,19.879,55.229H341.544l-21.781-58.082-7.872-47.233c-.014-.086-.037-.168-.054-.252l.008,0-8-40-15.69,3.138L294.242,296H224V264H208v40a36.771,36.771,0,0,1-16.407,30.657l-28.031,18.687A8,8,0,0,0,160,360v48H144V338.667L166.4,308.8a8,8,0,0,0,.755-8.378l-8.844-17.689A60.074,60.074,0,0,1,152,256a48.055,48.055,0,0,1,48-48H352a8,8,0,0,0,5.657-2.343l32-32a7.986,7.986,0,0,0,1.5-2.079l5.267-10.534A30.652,30.652,0,0,1,416,145.039V168a8,8,0,0,0,8,8,21.852,21.852,0,0,1,18.219,9.751l7.125,10.687a7.994,7.994,0,0,0,3.078,2.717l25.794,12.9Z"/><rect x="424" y="184" width="16" height="16"/></g></svg>
