<?xml version="1.0"?>
<svg xmlns="http://www.w3.org/2000/svg" viewBox="0 0 512 512" width="512" height="512"><g id="outline"><path d="M445.989,46.605,403,38.005A118.569,118.569,0,0,0,284.175,84.412l-.734,1.011A120.331,120.331,0,0,0,260.18,156.64v41.113l-16-4V185.63A85.428,85.428,0,0,0,227.209,134.7l-8.054-10.732L195.533,68.849a8,8,0,0,0-14.009-1.287L167.272,88.936a113.389,113.389,0,0,0-19,58.481L136.8,154.3a106.931,106.931,0,0,0-40.679,43.923l-11.1,22.2a8,8,0,0,0,1.5,9.234l5.862,5.862a24.3,24.3,0,0,0-7.585,2.494l-11.716,6.174L67.677,222.1a8,8,0,0,0-11.5-5.175l-28.309,14.92a8,8,0,0,0-2.232,12.412L40.8,261.2l-11.71,6.171a24.514,24.514,0,0,0-10.259,33.117l7.219,13.7h0v0l4.817,9.133a94.848,94.848,0,0,0,83.89,50.624c.676,0,1.354-.007,2.03-.021a8,8,0,0,0,6.327-3.331,94.906,94.906,0,0,0,16.51-39.84l10.9,10.9a8.016,8.016,0,0,0,2.685,1.771l34.967,13.987v22.7a55.633,55.633,0,0,0,16.4,39.6L232.867,448H215.494l-13.657-13.657a8,8,0,0,0-11.314,0l-24,24a8,8,0,0,0-.511,10.751l19.82,24A8,8,0,0,0,192,496H321.21a40.188,40.188,0,0,0,24.552-8.426l63.33-49.26a7.913,7.913,0,0,0,.744-.658h0l32.911-32.9A126.376,126.376,0,0,0,479.4,324.729l.76-10.291a124.42,124.42,0,0,0-41.935-102.285l-.735-.644a125.418,125.418,0,0,0-48.483-26.452l-16.951-4.837a18.959,18.959,0,0,1-12.775-12.241,9.9,9.9,0,0,1-.509-3.139,10,10,0,0,1,2.907-7.023,9.949,9.949,0,0,1,10.512-2.277l33.445,12.552a72.512,72.512,0,0,0,45.021,1.811,62.2,62.2,0,0,0,44.864-54.2l.218-2.471A62.084,62.084,0,0,0,445.989,46.605ZM54.572,235.854l3.922,16.02-3.1,1.636-11-12.29ZM228.766,416.335l2.96,7.892L215.9,408.4a39.733,39.733,0,0,1-11.715-28.283V354.9l10.048-12.058,10.044-12.053-2.737,19.163a134.782,134.782,0,0,0,7.226,66.387ZM109.982,330.242l4.431-17.509,10.454,4.311a78.2,78.2,0,0,1-2.434,17.784Zm-22.3,22.9a78.329,78.329,0,0,1-16.044-8.061l2.352-11.051,16.948,6.243ZM51.121,325.611l7.7,2.837-1.088,5.114A77.624,77.624,0,0,1,51.121,325.611ZM64.212,303.12l-2.025,9.516-9.435-3.475Zm13.144,15.1,4.062-19.09,10.372,4.275.633,2.531a8,8,0,0,0,5.737,5.8l-3.275,12.942ZM130.2,296.308A8.013,8.013,0,0,0,128,296H106.431l-6.246-24.985v-9.249l13.059-4.353L133.785,284.8a7.99,7.99,0,0,0,7.62,3.106l48.566-7.5,28.175,20.406A195.911,195.911,0,0,1,130.2,296.308Zm13.508-24.947-9.153-12.2c.184.032.366.072.551.1l22.08,3.682.983,6.186ZM32.387,286.539a8.455,8.455,0,0,1,4.162-5.012l47.636-25.1V272a8.026,8.026,0,0,0,.238,1.94l.1.388L36.477,299.652l-3.489-6.62A8.471,8.471,0,0,1,32.387,286.539ZM112.4,357.914a78.559,78.559,0,0,1-9.209-.825l2.847-11.25,10.879,4.007A78.412,78.412,0,0,1,112.4,357.914Zm35.913-41.1a210.7,210.7,0,0,0,66.112.806l-20.664,24.8L160.68,329.182ZM335.939,474.944A24.11,24.11,0,0,1,321.21,480H195.769L182.98,464.514l13.2-13.2,10.343,10.344A8,8,0,0,0,212.18,464h40a7.989,7.989,0,0,0,7.484-10.8l.011-.005-15.927-42.473a118.81,118.81,0,0,1-6.37-58.507l6.726-47.08-.01,0a7.927,7.927,0,0,0-3.217-7.608l-44.185-32a7.992,7.992,0,0,0-5.913-1.427l-16.8,2.593-1.9-11.943a8,8,0,0,0-6.585-6.635l-27.763-4.63A55.629,55.629,0,0,1,111.985,232H112a8,8,0,0,0,0-16h-6.876l5.31-10.621a90.954,90.954,0,0,1,34.6-37.359l15.26-9.161A8,8,0,0,0,164.18,152a97.451,97.451,0,0,1,16.406-54.191l6.058-9.085,5.561,12.976-7.36,14.722a43.984,43.984,0,0,0,0,39.156,8,8,0,1,0,14.31-7.156,27.91,27.91,0,0,1,0-24.844l1.307-2.613,4.365,10.186a7.986,7.986,0,0,0,.954,1.651l8.629,11.5a69.32,69.32,0,0,1,13.77,41.33V200a8,8,0,0,0,6.06,7.761L306.9,225.923a110.693,110.693,0,0,1,20.809,7.468,112.335,112.335,0,0,1,18.934,11.45,110.9,110.9,0,0,1,44.35,83.419l4.992,99.981ZM479.8,111.805l-.218,2.473a46.2,46.2,0,0,1-33.319,40.24,56.4,56.4,0,0,1-35.013-1.409l-33.439-12.548a25.948,25.948,0,0,0-27.449,5.942,25.934,25.934,0,0,0-6.263,26.534A34.956,34.956,0,0,0,367.655,195.6l16.959,4.838a109.53,109.53,0,0,1,42.334,23.1l.734.643a108.344,108.344,0,0,1,36.52,89.07l-.761,10.291a110.362,110.362,0,0,1-32.007,69.891L411.271,413.6l-4.3-86.138a126.858,126.858,0,0,0-50.736-95.425,128.552,128.552,0,0,0-21.644-13.089,126.993,126.993,0,0,0-15.11-6.036l-4.387-40.671A68.856,68.856,0,0,1,383.551,96H440a8,8,0,0,0,0-16H383.551a84.853,84.853,0,0,0-84.365,93.957l3.718,34.476-26.724-6.68V156.64a104.44,104.44,0,0,1,20.2-61.812l.736-1.014a102.528,102.528,0,0,1,102.74-40.12l42.991,8.6A46.119,46.119,0,0,1,479.8,111.805Z"/><circle cx="148.185" cy="200" r="13.5"/></g></svg>
